<svg t="1583929636164" class="icon" viewBox="0 0 1024 1024" version="1.1" xmlns="http://www.w3.org/2000/svg" p-id="729" width="200" height="200"><path d="M220.794884 293.577561L205.421984 278.20466V299.555911a128.107504 128.107504 0 0 0 15.3729-5.97835z m-16.653975-16.653976v-1.281075z" p-id="730" fill="#515151"></path><path d="M919.834829 724.445797V299.555911a154.156029 154.156029 0 1 0-102.486003 0v424.889886a128.107504 128.107504 0 0 0-15.372901 5.978351L292.962111 220.556283a149.031729 149.031729 0 0 0 15.372901-65.761851A154.156029 154.156029 0 1 0 102.935981 299.555911v424.889886a154.156029 154.156029 0 1 0 102.486003 0V278.20466v2.56215l15.3729 15.372901 508.586789 508.159764a157.145204 157.145204 0 0 0-14.945875 66.615901 154.156029 154.156029 0 1 0 205.399031-146.469579zM205.849009 868.780251a51.670026 51.670026 0 1 1-51.670026-51.670026 51.670026 51.670026 0 0 1 51.670026 51.670026zM154.178983 206.037433a51.670026 51.670026 0 1 1 51.670026-51.243001 51.243001 51.243001 0 0 1-51.670026 51.243001z m662.742818-51.243001a51.670026 51.670026 0 1 1 51.670026 51.243001 51.670026 51.670026 0 0 1-51.670026-51.243001z m51.670026 764.801796a51.670026 51.670026 0 1 1 51.670027-51.243002 51.670026 51.670026 0 0 1-51.670027 51.243002z" p-id="731" fill="#515151"></path><path d="M205.421984 275.64251v2.56215l-1.281075-1.281075 1.281075-1.281075z" p-id="732" fill="#515151"></path><path d="M205.421984 275.64251v2.56215l-1.281075-1.281075 1.281075-1.281075z" p-id="733" fill="#515151"></path></svg>